# xmcd
#
# Track frame offsets:
#	150
#	19798
#	48592
#	64470
#	86027
#	100073
#	115877
#	132111
#	152410
#	169375
#	200399
#
# Disc length: 2896 seconds
#
# Revision: 0
# Processed by: cddbd v1.5.2PL0 Copyright (c) Steve Scherf et al.
# Submitted via: EZCDAudioConverter 3.1.7.1
#
DISCID=920b4e0b
DTITLE=Bianca De Leon - Love, Guns and Money
DYEAR=2016
DGENRE=Country
TTITLE0=Independence Day 
TTITLE1=I Sang Patsy Cline  (Extended Version) 
TTITLE2=Buscando Por Ti 
TTITLE3=Guns and Money 
TTITLE4=Stale Wine and Roses 
TTITLE5=The Bottle's On The Table 
TTITLE6=This Time 
TTITLE7=Garden In The Sun
TTITLE8=Silence Speaks Louder Than Words 
TTITLE9=Nothin - Ramblin Man 
TTITLE10=I Sang Patsy Cline (Radio Cut) 
EXTD=
EXTT0=
EXTT1=
EXTT2=
EXTT3=
EXTT4=
EXTT5=
EXTT6=
EXTT7=
EXTT8=
EXTT9=
EXTT10=
PLAYORDER=
